<svg id="Слой_1" data-name="Слой 1" xmlns="http://www.w3.org/2000/svg" viewBox="0 0 425.2 425.2"><defs><style>.cls-1{fill:#fff;}</style></defs><title>Логотип ВД ВЕКТОР Белый</title><path class="cls-1" d="M71.83,303.09V253.16H92.56c9.07,0,14.92,4.88,14.92,12.45a11.08,11.08,0,0,1-9.1,10.87v.28c6.78.66,11.52,5.54,11.52,12.15,0,8.79-6.47,14.18-17.13,14.18Zm8.93-28.89h8.17c6.23,0,9.73-2.63,9.73-7.27,0-4.36-3-6.82-8.35-6.82H80.76Zm10,21.94c6.58,0,10.07-2.74,10.07-7.86s-3.6-7.75-10.45-7.75H80.76v15.61Z"/><path class="cls-1" d="M152.44,267.17H152l-24.26,35.92h-8.65V253.16H128v36h.45l24.22-36h8.65v49.93h-8.86Z"/><path class="cls-1" d="M206.16,303.09V281.43H181.87v21.66h-8.93V253.16h8.93v20.76h24.29V253.16h8.9v49.93Z"/><path class="cls-1" d="M259.88,303.09V281.43H235.59v21.66h-8.93V253.16h8.93v20.76h24.29V253.16h8.89v49.93Z"/><path class="cls-1" d="M308.75,290.19H290.38l-4.26,12.9h-9.21l17.72-49.93H304.7l17.72,49.93H313Zm-16.3-6.89h14.19L299.69,262h-.25Z"/><path class="cls-1" d="M337.76,303.09h-10l13.56-19.65A14.62,14.62,0,0,1,330.18,269c0-9.42,6.86-15.85,17.34-15.85h19.9v49.93h-8.86V284.65h-8.24Zm20.8-42.67h-9.51c-6.13,0-9.76,3.19-9.76,8.62s3.6,8.62,9.76,8.62h9.51Z"/><path class="cls-1" d="M95.32,331.81H93.47v-4.95h1.18c1.17-.62,1.6-2,1.72-4.13L97,312.67h9.89v14.19h2v4.95H107v-3.16H95.32Zm1.8-5v.09h7.76v-12.4H98.76l-.52,8.31C98.13,324.6,97.91,325.82,97.12,326.77Z"/><path class="cls-1" d="M146.49,328.65h-9.91v-16h9.91v1.79h-7.91v5.13h7.5v1.77h-7.5v5.5h7.91Z"/><path class="cls-1" d="M180.43,312.67a5.14,5.14,0,0,1,0,10.28h-3.69v5.7h-2v-16Zm-3.71,8.51h3.19c2.28,0,3.59-1.26,3.59-3.38s-1.3-3.36-3.59-3.36h-3.19Z"/><path class="cls-1" d="M223.34,328.65h-9.91v-16h9.91v1.79h-7.91v5.13h7.5v1.77h-7.5v5.5h7.91Z"/><path class="cls-1" d="M251.58,328.65v-16h6.06c2.73,0,4.58,1.59,4.58,4a3.57,3.57,0,0,1-2.75,3.49v.08a3.83,3.83,0,0,1,3.56,3.94c0,2.81-2,4.48-5.41,4.48Zm2-9.09h3c2.36,0,3.65-.94,3.65-2.67s-1.09-2.46-3-2.46h-3.61Zm3.75,7.33c2.4,0,3.66-1,3.66-2.82s-1.3-2.8-3.85-2.8h-3.56v5.62Z"/><path class="cls-1" d="M301.67,328.65v-7.28H292.9v7.28h-2v-16h2v6.91h8.77v-6.91h2v16Z"/><path class="cls-1" d="M333.7,328.65h-2.37l4.59-6.39a4.66,4.66,0,0,1-3.76-4.69,4.8,4.8,0,0,1,5.12-4.9h6v16h-2V322.5h-3.21Zm7.62-14.19H337.8c-2.29,0-3.59,1.12-3.59,3.11s1.31,3.14,3.59,3.14h3.52Z"/><path class="cls-1" d="M270.42,150.42c14.29-18-1.11-57-26.48-57-21.1,0-53.12,0-60.82,0v15.73l12.25,0V211H183.12v13.27l66.56,0C281.73,219.64,298.15,177.48,270.42,150.42ZM220.8,123.36h17.87a7.66,7.66,0,0,1,7.66,7.66h0a7.66,7.66,0,0,1-7.66,7.66H220.8Zm34.72,59.49a12,12,0,0,1-12,12H220.8v-24h22.72a12,12,0,0,1,12,12Z"/><path class="cls-1" d="M279,122.64a46.9,46.9,0,0,1,1.1,8.19,67.32,67.32,0,0,1,6.09,28,68.05,68.05,0,0,1-.39,7.18,47.19,47.19,0,0,1,1.91,6.31A70.33,70.33,0,0,0,279,122.64Z"/><path class="cls-1" d="M178.86,213.82a67.66,67.66,0,0,1,0-109.95v-3.48a70.53,70.53,0,0,0,0,116.9Z"/></svg>